<svg width="11" height="10" viewBox="0 0 11 10" fill="none" xmlns="http://www.w3.org/2000/svg">
<g clip-path="url(#clip0_7561_261)">
<path d="M6.83043 3.3449L6.71707 3.1034L5.52617 0.566458C5.50703 0.525694 5.46639 0.5 5.42171 0.5C5.37695 0.5 5.33643 0.525629 5.31725 0.566458L4.12619 3.10357L4.01283 3.34506L3.74912 3.38536L1.09778 3.7905C1.09775 3.79051 1.09773 3.79051 1.09771 3.79051C1.05516 3.79705 1.01975 3.82675 1.00597 3.86789C0.99236 3.90852 1.00237 3.95359 1.03309 3.98511L2.96921 5.97044L3.14537 6.15108L3.10471 6.4001L2.64617 9.2087C2.64616 9.20874 2.64615 9.20879 2.64615 9.20883C2.63921 9.2518 2.65742 9.29621 2.69435 9.32231L2.69451 9.32242C2.72935 9.34706 2.777 9.35042 2.81677 9.32853C2.8168 9.32851 2.81684 9.32849 2.81688 9.32847L5.1799 8.02167L5.42187 7.88785L5.66384 8.02167L8.02719 9.32865L6.83043 3.3449ZM6.83043 3.3449L7.09416 3.3852M6.83043 3.3449L7.09416 3.3852M7.09416 3.3852L9.74549 3.79035C9.74552 3.79035 9.74554 3.79035 9.74556 3.79036C9.78792 3.79686 9.82364 3.82663 9.83759 3.86814L10.3116 3.70891M7.09416 3.3852L8.14957 9.32218M8.14957 9.32218L8.14961 9.32215C8.18602 9.29644 8.20447 9.25227 8.19742 9.20872C8.19741 9.20869 8.19741 9.20867 8.19741 9.20865L7.73887 6.4001L7.69821 6.15107L7.87439 5.97043L9.81031 3.98546C9.81034 3.98542 9.81038 3.98539 9.81041 3.98536C9.84101 3.95382 9.85112 3.90857 9.83742 3.86763L10.3116 3.70891M8.14957 9.32218C8.13002 9.33598 8.10682 9.34312 8.08343 9.34312C8.06392 9.34312 8.04479 9.33836 8.02728 9.3287L8.14957 9.32218ZM10.3116 3.70891C10.3848 3.92781 10.3295 4.16875 10.1687 4.33406L8.23234 6.31953L10.3116 3.70891Z" stroke="#FBB03B"/>
</g>
<defs>
<clipPath id="clip0_7561_261">
<rect width="10" height="10" fill="white" transform="translate(0.5)"/>
</clipPath>
</defs>
</svg>
