<svg xmlns="http://www.w3.org/2000/svg" viewBox="0 0 860 516" width="860" height="516" role="img" aria-label="Page not found"><defs><linearGradient id="bgerr404" x1="0" y1="0" x2="1" y2="1"><stop offset="0" stop-color="#191C23"/><stop offset="1" stop-color="#0B0D11"/></linearGradient><radialGradient id="glerr404" cx="0.82" cy="0.14" r="0.72"><stop offset="0" stop-color="#F36B21" stop-opacity="0.28"/><stop offset="1" stop-color="#F36B21" stop-opacity="0"/></radialGradient><pattern id="grerr404" width="24" height="24" patternUnits="userSpaceOnUse"><path d="M24 0H0V24" fill="none" stroke="#FFF" stroke-opacity="0.04"/></pattern></defs><rect width="860" height="516" rx="16" fill="url(#bgerr404)"/><rect width="860" height="516" rx="16" fill="url(#grerr404)"/><rect width="860" height="516" rx="16" fill="url(#glerr404)"/><path d="M189 144L430 93" stroke="#FFF" stroke-opacity="0.18"/><path d="M430 93L430 232" stroke="#FFF" stroke-opacity="0.18"/><path d="M671 175L430 232" stroke="#FFF" stroke-opacity="0.18"/><path d="M292 320L568 361" stroke="#FFF" stroke-opacity="0.18"/><path d="M292 320L430 232" stroke="#FFF" stroke-opacity="0.18"/><path d="M568 361L430 232" stroke="#FFF" stroke-opacity="0.18"/><circle cx="189" cy="144" r="22" fill="#F58A4E" fill-opacity="0.55"/><circle cx="430" cy="93" r="22" fill="#F58A4E" fill-opacity="0.55"/><circle cx="671" cy="175" r="22" fill="#F58A4E" fill-opacity="0.55"/><circle cx="292" cy="320" r="22" fill="#F58A4E" fill-opacity="0.55"/><circle cx="568" cy="361" r="22" fill="#F58A4E" fill-opacity="0.55"/><circle cx="430" cy="232" r="32" fill="#F36B21" fill-opacity="1"/></svg>