<svg xmlns="http://www.w3.org/2000/svg" viewBox="0 0 370 240" width="370" height="240" role="img" aria-label="Insight"><defs><linearGradient id="bgnewsb" x1="0" y1="0" x2="1" y2="1"><stop offset="0" stop-color="#191C23"/><stop offset="1" stop-color="#0B0D11"/></linearGradient><radialGradient id="glnewsb" cx="0.82" cy="0.14" r="0.72"><stop offset="0" stop-color="#F36B21" stop-opacity="0.28"/><stop offset="1" stop-color="#F36B21" stop-opacity="0"/></radialGradient><pattern id="grnewsb" width="24" height="24" patternUnits="userSpaceOnUse"><path d="M24 0H0V24" fill="none" stroke="#FFF" stroke-opacity="0.04"/></pattern></defs><rect width="370" height="240" rx="16" fill="url(#bgnewsb)"/><rect width="370" height="240" rx="16" fill="url(#grnewsb)"/><rect width="370" height="240" rx="16" fill="url(#glnewsb)"/><rect x="37" y="149" width="27" height="47" rx="7" fill="#FFFFFF" fill-opacity="0.16"/><rect x="79" y="127" width="27" height="70" rx="7" fill="#FFFFFF" fill-opacity="0.16"/><rect x="122" y="138" width="27" height="59" rx="7" fill="#FFFFFF" fill-opacity="0.16"/><rect x="164" y="107" width="27" height="90" rx="7" fill="#FFFFFF" fill-opacity="0.16"/><rect x="206" y="121" width="27" height="76" rx="7" fill="#FFFFFF" fill-opacity="0.16"/><rect x="248" y="84" width="27" height="112" rx="7" fill="#F36B21" fill-opacity="1"/><rect x="291" y="142" width="27" height="55" rx="7" fill="#FFFFFF" fill-opacity="0.16"/><path d="M37 207H333" stroke="#FFF" stroke-opacity="0.14"/></svg>