<svg width="195" height="40" viewBox="0 0 195 40" fill="none" xmlns="http://www.w3.org/2000/svg">
<g clip-path="url(#clip0_7468_1181)">
<path fill-rule="evenodd" clip-rule="evenodd" d="M1.70967 23.6491C3.82501 25.7869 7.25482 25.7869 9.37016 23.6491C11.485 21.5113 11.485 18.0438 9.37016 15.9061C7.25482 13.7683 3.82501 13.7683 1.70967 15.9061C-0.405175 18.0438 -0.405175 21.5113 1.70967 23.6491ZM23.5194 30.2091C21.4045 28.0713 17.9741 28.0713 15.8593 30.2091C13.745 32.3469 13.745 35.8142 15.8593 37.952C17.9746 40.0898 21.4045 40.0898 23.5198 37.952C25.6347 35.8138 25.6347 32.3469 23.5194 30.2091ZM30.0089 15.9061C27.894 18.0438 27.894 21.5113 30.0089 23.6491C32.1242 25.7869 35.5542 25.7869 37.6688 23.6491C39.7844 21.5113 39.7844 18.0438 37.6688 15.9061C35.5546 13.7683 32.1242 13.7683 30.0089 15.9061ZM15.8593 1.60314C13.745 3.74089 13.745 7.20787 15.8593 9.34611C17.9746 11.4839 21.4045 11.4839 23.5198 9.34611C25.6287 7.21338 25.6347 3.75791 23.5356 1.61916C23.5301 1.61366 23.5253 1.60814 23.5194 1.60263C21.4045 -0.534623 17.9741 -0.534619 15.8593 1.60314ZM9.37016 1.60314C8.68766 0.913749 7.86945 0.446156 7.00173 0.20184C6.98936 0.198336 6.97597 0.194818 6.96311 0.191313C6.51784 0.0701578 6.0498 0.00457339 5.5674 0.00357117H5.55502C2.57244 0.00357117 0.1535 2.44873 0.146567 5.46662C0.146567 5.47062 0.146567 5.47462 0.146567 5.47913C0.146567 7.99738 1.82656 10.1191 4.11375 10.7574C4.57239 10.8856 5.05578 10.9542 5.55502 10.9542C6.53219 10.9542 7.42867 11.0403 8.24389 11.2115C11.4162 11.8779 13.3552 13.8359 14.0179 17.043C14.1674 17.767 14.2516 18.5545 14.2709 19.4046C14.263 19.5232 14.2596 19.6434 14.2596 19.764C14.2596 20.7613 14.1729 21.6755 14.001 22.5062C13.3378 25.7042 11.4033 27.6598 8.23993 28.3302C7.41827 28.5044 6.51388 28.5915 5.52679 28.5915C4.12119 28.5915 2.83445 29.1418 1.86865 30.0398C1.81764 30.0969 1.76415 30.1535 1.70967 30.2084C-0.314539 32.2546 -0.401214 35.5189 1.44965 37.6695C1.53285 37.7662 1.61953 37.8604 1.70967 37.9515C2.59324 38.8386 3.77746 39.42 5.0944 39.5251L5.7452 39.5371C8.63468 39.4213 10.9437 37.0158 10.9437 34.0664C10.9437 33.9589 10.9446 33.8513 10.9466 33.7451C10.963 32.8784 11.0477 32.0773 11.1987 31.3415C11.8594 28.1273 13.8009 26.1653 16.9806 25.4969C17.6953 25.3466 18.4734 25.2622 19.3134 25.2435C19.2965 25.2422 19.2792 25.2411 19.2619 25.2391L19.3411 25.2406L19.3639 25.2426L19.3916 25.2422C19.4813 25.2406 19.5714 25.2395 19.6626 25.2395L19.3946 25.2422L19.6883 25.2475H19.6903L20.0395 25.2411L20.1153 25.2395C20.0479 25.2451 19.98 25.2491 19.9127 25.2515L19.8359 25.2502C19.7903 25.2515 19.7448 25.2522 19.6997 25.2526C20.6794 25.2526 21.5778 25.3386 22.3944 25.5115C25.5652 26.1793 27.5022 28.1389 28.1635 31.3475C28.3343 32.1755 28.4201 33.0866 28.4201 34.08C28.4201 35.5473 28.9901 36.8802 29.9187 37.8629C29.9495 37.892 29.9796 37.9215 30.0095 37.9515C31.0089 38.9613 32.3016 39.4944 33.6105 39.5506C33.6121 39.55 33.6141 39.5506 33.6156 39.5506L34.2604 39.5386C35.5748 39.4329 36.7576 38.8518 37.6392 37.9651C38.659 36.9326 39.237 35.5429 39.237 34.08C39.237 31.1091 36.8607 28.6664 33.939 28.606C33.9018 28.6049 33.8651 28.6049 33.828 28.6049C32.8488 28.6049 31.951 28.5189 31.1347 28.3466C27.9635 27.6786 26.0264 25.7186 25.3647 22.5102C25.2022 21.7221 25.1172 20.859 25.109 19.9213C25.1101 19.8747 25.1106 19.8281 25.1106 19.7811C25.1106 18.7863 25.1963 17.8736 25.3687 17.045C26.0308 13.8419 27.9674 11.8839 31.1362 11.214C31.9569 11.0408 32.8593 10.9537 33.8434 10.9537C35.2772 10.9537 36.5808 10.3905 37.5497 9.47078C37.5888 9.42873 37.6284 9.38718 37.6688 9.34611C39.7844 7.20787 39.7844 3.7404 37.6688 1.60314C37.6649 1.59863 37.6605 1.59463 37.657 1.59062C37.6466 1.57961 37.6363 1.5686 37.6249 1.55858C36.6488 0.596345 35.3143 0.00357117 33.8434 0.00357117H33.8311C30.8454 0.0105801 28.4271 2.45973 28.4271 5.47862C28.4271 5.5402 28.4265 5.60229 28.426 5.66338C28.4161 6.58456 28.331 7.43367 28.171 8.20967C27.5093 11.4183 25.5698 13.3783 22.3955 14.0472C21.6784 14.1979 20.8983 14.283 20.0553 14.302C19.9969 14.3035 19.9384 14.3045 19.88 14.305C19.8755 14.305 19.8716 14.305 19.8671 14.3045C19.8156 14.3035 19.7641 14.302 19.7121 14.302C19.7081 14.302 19.7042 14.302 19.6997 14.302C19.6645 14.302 19.6289 14.3025 19.5937 14.3035C19.568 14.304 19.5412 14.3045 19.515 14.3055C19.514 14.3055 19.513 14.3055 19.512 14.3055C19.4422 14.305 19.3728 14.3035 19.3035 14.302C18.4689 14.2825 17.6953 14.1969 16.9841 14.0467C13.8148 13.3768 11.8792 11.4163 11.219 8.20616C11.0492 7.37909 10.9635 6.46991 10.9635 5.47862C10.9635 4.01273 10.3949 2.68153 9.46722 1.69876C9.43455 1.66772 9.40234 1.63568 9.37016 1.60314Z" fill="#dd5907"/>
<path d="M65.4738 36.4707H49.7216C49.0472 36.4707 48.71 36.1121 48.71 35.3949V4.60538C48.71 3.88815 49.0472 3.52954 49.7216 3.52954H65.4738C66.116 3.52954 66.4372 3.88815 66.4372 4.60538V8.08905C66.4372 8.80628 66.116 9.16489 65.4738 9.16489H55.4059C55.0205 9.16489 54.8278 9.35274 54.8278 9.72842V16.3884C54.8278 16.7641 55.0205 16.9519 55.4059 16.9519H63.6433C64.3177 16.9519 64.6549 17.3105 64.6549 18.0278V21.5114C64.6549 22.2287 64.3177 22.5873 63.6433 22.5873H55.4059C55.0205 22.5873 54.8278 22.7752 54.8278 23.1508V30.2718C54.8278 30.6475 55.0205 30.8354 55.4059 30.8354H65.4738C66.116 30.8354 66.4372 31.194 66.4372 31.9112V35.3949C66.4372 36.1121 66.116 36.4707 65.4738 36.4707Z" fill="white"/>
<path d="M75.9069 36.4707H70.8701C70.0056 36.4707 69.773 36.1155 70.1719 35.405L76.4555 23.2758L70.1719 11.6541C69.8394 10.9436 70.0389 10.5884 70.7704 10.5884H75.8571C76.655 10.5884 77.1702 10.9436 77.403 11.6541L80.5448 19.3681H80.7443L83.4871 11.6541C83.7197 10.9436 84.2352 10.5884 85.0331 10.5884H90.0201C90.8844 10.5884 91.1004 10.9436 90.6684 11.6541L84.684 23.2758L91.1172 35.405C91.2834 35.7095 91.2999 35.9632 91.1671 36.1662C91.0673 36.3692 90.8511 36.4707 90.5188 36.4707H85.3822C84.684 36.4707 84.1853 36.1155 83.8861 35.405L80.7443 27.6403H80.5448L77.403 35.405C77.1702 36.1155 76.6715 36.4707 75.9069 36.4707Z" fill="white"/>
<path d="M95.3657 16.5241H93.4453C93.0612 16.5241 92.789 16.4576 92.6291 16.3246C92.501 16.1916 92.437 15.9257 92.437 15.5268V12.086C92.437 11.3879 92.7731 11.0388 93.4453 11.0388H95.3657C95.7177 11.0388 95.8938 10.856 95.8938 10.4903V5.753C95.8938 5.05487 96.2458 4.70581 96.9501 4.70581H100.983C101.655 4.70581 101.991 5.05487 101.991 5.753V10.4903C101.991 10.856 102.183 11.0388 102.567 11.0388H106.312C106.984 11.0388 107.321 11.3879 107.321 12.086V15.5268C107.321 15.8924 107.24 16.1584 107.08 16.3246C106.952 16.4576 106.696 16.5241 106.312 16.5241H102.567C102.183 16.5241 101.991 16.7069 101.991 17.0726V28.093C101.991 29.1236 102.215 29.8716 102.663 30.337C103.111 30.7692 103.848 30.9852 104.872 30.9852H106.792C107.465 30.9852 107.801 31.3343 107.801 32.0324V35.4732C107.801 35.8388 107.721 36.1049 107.561 36.271C107.432 36.4041 107.177 36.4705 106.792 36.4705H103.864C101.335 36.4705 99.3666 35.7724 97.9583 34.3761C96.5819 32.9799 95.8938 30.9852 95.8938 28.3922V17.0726C95.8938 16.7069 95.7177 16.5241 95.3657 16.5241Z" fill="white"/>
<path d="M131.489 36.4707H120.633C118.046 36.4707 116.049 35.7602 114.641 34.3392C113.232 32.9183 112.528 30.8714 112.528 28.1985V18.8606C112.528 16.1878 113.232 14.1409 114.641 12.7199C116.049 11.2989 118.046 10.5884 120.633 10.5884H124.514C127.101 10.5884 129.099 11.2989 130.507 12.7199C131.915 14.1409 132.619 16.1878 132.619 18.8606V25.3058C132.619 26.0163 132.275 26.3715 131.588 26.3715H119.258C118.865 26.3715 118.669 26.5577 118.669 26.9298V28.0463C118.669 29.0952 118.881 29.8564 119.307 30.33C119.766 30.7699 120.519 30.9898 121.567 30.9898H131.489C132.177 30.9898 132.521 31.3619 132.521 32.1063V35.4557C132.521 35.8278 132.439 36.0986 132.275 36.2677C132.144 36.4031 131.882 36.4707 131.489 36.4707ZM119.258 22.0578H125.939C126.299 22.0578 126.479 21.8717 126.479 21.4996V19.0636C126.479 17.9809 126.266 17.2197 125.84 16.7798C125.415 16.34 124.678 16.1201 123.63 16.1201H121.567C120.519 16.1201 119.782 16.34 119.356 16.7798C118.93 17.2197 118.718 17.9809 118.718 19.0636V21.4996C118.718 21.8717 118.898 22.0578 119.258 22.0578Z" fill="white"/>
<path d="M153.892 31.954V35.4557C153.892 35.8278 153.804 36.0986 153.627 36.2677C153.486 36.4031 153.204 36.4707 152.781 36.4707H144.896C142.109 36.4707 139.957 35.7602 138.44 34.3392C136.923 32.9183 136.165 30.8714 136.165 28.1985V18.8606C136.165 16.1878 136.923 14.1409 138.44 12.7199C139.957 11.2989 142.109 10.5884 144.896 10.5884H152.781C153.521 10.5884 153.892 10.9436 153.892 11.6541V15.1559C153.892 15.528 153.804 15.7987 153.627 15.9678C153.486 16.1032 153.204 16.1708 152.781 16.1708H145.954C144.861 16.1708 144.067 16.4077 143.573 16.8813C143.114 17.3212 142.885 18.0824 142.885 19.1651V27.894C142.885 28.9766 143.114 29.7549 143.573 30.2285C144.067 30.6684 144.861 30.8883 145.954 30.8883H152.781C153.521 30.8883 153.892 31.2435 153.892 31.954Z" fill="white"/>
<path d="M162.832 36.4706H158.506C157.793 36.4706 157.437 36.1192 157.437 35.4163V2.23082C157.437 1.52795 157.793 1.17651 158.506 1.17651H162.832C163.544 1.17651 163.9 1.52795 163.9 2.23082V13.5771H164.104C164.85 11.7698 166.513 10.8661 169.091 10.8661H170.72C176.046 10.8661 178.71 13.5939 178.71 19.0495V35.4163C178.71 36.1192 178.336 36.4706 177.59 36.4706H173.315C172.603 36.4706 172.246 36.1192 172.246 35.4163V19.3507C172.246 18.2797 172.009 17.5266 171.534 17.0915C171.093 16.6229 170.33 16.3886 169.244 16.3886H167.412C165.071 16.3886 163.9 17.6605 163.9 20.2042V35.4163C163.9 36.1192 163.544 36.4706 162.832 36.4706Z" fill="white"/>
</g>
<defs>
<clipPath id="clip0_7468_1181">
<rect width="195" height="40" fill="white" transform="translate(0.00439453)"/>
</clipPath>
</defs>
</svg>
